ffmpeg version 7.1.1-essentials_build-www.gyan.dev Copyright (c) 2000-2025 the FFmpeg developers
  built with gcc 14.2.0 (Rev1, Built by MSYS2 project)
  configuration: --enable-gpl --enable-version3 --enable-static --disable-w32threads --disable-autodetect --enable-fontconfig --enable-iconv --enable-gnutls --enable-libxml2 --enable-gmp --enable-bzlib --enable-lzma --enable-zlib --enable-libsrt --enable-libssh --enable-libzmq --enable-avisynth --enable-sdl2 --enable-libwebp --enable-libx264 --enable-libx265 --enable-libxvid --enable-libaom --enable-libopenjpeg --enable-libvpx --enable-mediafoundation --enable-libass --enable-libfreetype --enable-libfribidi --enable-libharfbuzz --enable-libvidstab --enable-libvmaf --enable-libzimg --enable-amf --enable-cuda-llvm --enable-cuvid --enable-dxva2 --enable-d3d11va --enable-d3d12va --enable-ffnvcodec --enable-libvpl --enable-nvdec --enable-nvenc --enable-vaapi --enable-libgme --enable-libopenmpt --enable-libopencore-amrwb --enable-libmp3lame --enable-libtheora --enable-libvo-amrwbenc --enable-libgsm --enable-libopencore-amrnb --enable-libopus --enable-libspeex --enable-libvorbis --enable-librubberband
  libavutil      59. 39.100 / 59. 39.100
  libavcodec     61. 19.101 / 61. 19.101
  libavformat    61.  7.100 / 61.  7.100
  libavdevice    61.  3.100 / 61.  3.100
  libavfilter    10.  4.100 / 10.  4.100
  libswscale      8.  3.100 /  8.  3.100
  libswresample   5.  3.100 /  5.  3.100
  libpostproc    58.  3.100 / 58.  3.100
Input #0, mov,mp4,m4a,3gp,3g2,mj2, from 'assets/background/backgroundVideo.mp4':
  Metadata:
    major_brand     : isom
    minor_version   : 512
    compatible_brands: isomiso2avc1mp41
    encoder         : Lavf61.7.100
  Duration: 00:00:08.20, start: 0.000000, bitrate: 7589 kb/s
  Stream #0:0[0x1](und): Video: h264 (High) (avc1 / 0x31637661), yuv420p(tv, bt709, progressive), 1920x1080, 7581 kb/s, 30 fps, 30 tbr, 15360 tbn (default)
      Metadata:
        handler_name    : VideoHandler
        vendor_id       : [0][0][0][0]
[mp3 @ 00000243ffd20800] Estimating duration from bitrate, this may be inaccurate
Input #1, concat, from 'playlist/playlist.txt':
  Duration: N/A, start: 0.000000, bitrate: 256 kb/s
  Stream #1:0: Audio: mp3 (mp3float), 48000 Hz, stereo, fltp, 256 kb/s
Stream mapping:
  Stream #0:0 -> #0:0 (copy)
  Stream #1:0 -> #0:1 (mp3 (mp3float) -> aac (native))
Press [q] to stop, [?] for help
Output #0, flv, to 'rtmp://a.rtmp.youtube.com/live2/m104-c4t3-6823-6a10-0beu':
  Metadata:
    major_brand     : isom
    minor_version   : 512
    compatible_brands: isomiso2avc1mp41
    encoder         : Lavf61.7.100
  Stream #0:0(und): Video: h264 (High) ([7][0][0][0] / 0x0007), yuv420p(tv, bt709, progressive), 1920x1080, q=2-31, 7581 kb/s, 30 fps, 30 tbr, 1k tbn (default)
      Metadata:
        handler_name    : VideoHandler
        vendor_id       : [0][0][0][0]
  Stream #0:1: Audio: aac (LC) ([10][0][0][0] / 0x000A), 44100 Hz, stereo, fltp, 128 kb/s
      Metadata:
        encoder         : Lavc61.19.101 aac
frame=    1 fps=0.0 q=-1.0 size=       0KiB time=00:00:00.04 bitrate=  84.6kbits/s speed=0.0912x    frame=   23 fps= 22 q=-1.0 size=     957KiB time=00:00:00.67 bitrate=11640.2kbits/s speed=0.652x    frame=   64 fps= 41 q=-1.0 size=    1846KiB time=00:00:02.03 bitrate=7435.4kbits/s speed=1.32x    frame=   79 fps= 38 q=-1.0 size=    2063KiB time=00:00:02.56 bitrate=6585.3kbits/s speed=1.24x    frame=   95 fps= 37 q=-1.0 size=    3145KiB time=00:00:03.06 bitrate=8402.6kbits/s speed=1.19x    frame=  110 fps= 36 q=-1.0 size=    3669KiB time=00:00:03.60 bitrate=8349.1kbits/s speed=1.16x    frame=  125 fps= 35 q=-1.0 size=    4282KiB time=00:00:04.13 bitrate=8486.1kbits/s speed=1.15x    frame=  141 fps= 34 q=-1.0 size=    4590KiB time=00:00:04.63 bitrate=8115.0kbits/s speed=1.13x    frame=  157 fps= 34 q=-1.0 size=    4952KiB time=00:00:05.13 bitrate=7902.0kbits/s speed=1.11x    frame=  170 fps= 33 q=-1.0 size=    5922KiB time=00:00:05.66 bitrate=8561.3kbits/s speed= 1.1x    frame=  181 fps= 32 q=-1.0 size=    6304KiB time=00:00:05.96 bitrate=8654.8kbits/s speed=1.05x    frame=  203 fps= 33 q=-1.0 size=    7246KiB time=00:00:06.70 bitrate=8859.3kbits/s speed=1.08x    frame=  219 fps= 33 q=-1.0 size=    7535KiB time=00:00:07.23 bitrate=8533.2kbits/s speed=1.08x    frame=  234 fps= 32 q=-1.0 size=    7675KiB time=00:00:07.73 bitrate=8129.7kbits/s speed=1.07x    frame=  247 fps= 32 q=-1.0 size=    7725KiB time=00:00:08.23 bitrate=7686.3kbits/s speed=1.06x    frame=  265 fps= 32 q=-1.0 size=    8685KiB time=00:00:08.76 bitrate=8115.8kbits/s speed=1.06x    frame=  281 fps= 32 q=-1.0 size=    8925KiB time=00:00:09.30 bitrate=7861.8kbits/s speed=1.06x    frame=  296 fps= 32 q=-1.0 size=    9139KiB time=00:00:09.80 bitrate=7639.3kbits/s speed=1.05x    frame=  312 fps= 32 q=-1.0 size=    9624KiB time=00:00:10.33 bitrate=7630.0kbits/s speed=1.05x    frame=  327 fps= 32 q=-1.0 size=    9804KiB time=00:00:10.83 bitrate=7413.3kbits/s speed=1.05x    frame=  327 fps= 30 q=-1.0 size=    9804KiB time=00:00:10.96 bitrate=7323.1kbits/s speed=1.01x    frame=  343 fps= 30 q=-1.0 size=   10962KiB time=00:00:11.40 bitrate=7876.4kbits/s speed=   1x    frame=  370 fps= 31 q=-1.0 size=   11642KiB time=00:00:12.28 bitrate=7764.5kbits/s speed=1.03x    frame=  376 fps= 30 q=-1.0 size=   12056KiB time=00:00:12.46 bitrate=7920.4kbits/s speed=1.01x    frame=  406 fps= 31 q=-1.0 size=   12699KiB time=00:00:13.43 bitrate=7744.2kbits/s speed=1.04x    frame=  407 fps= 30 q=-1.0 size=   12705KiB time=00:00:13.76 bitrate=7560.0kbits/s speed=1.02x    frame=  412 fps= 29 q=-1.0 size=   13567KiB time=00:00:13.88 bitrate=8004.2kbits/s speed=0.993x    frame=  416 fps= 29 q=-1.0 size=   13651KiB time=00:00:13.93 bitrate=8026.7kbits/s speed=0.96x    frame=  416 fps= 28 q=-1.0 size=   13651KiB time=00:00:13.93 bitrate=8026.7kbits/s speed=0.927x    frame=  430 fps= 28 q=-1.0 size=   14033KiB time=00:00:14.28 bitrate=8050.1kbits/s speed=0.919x    frame=  471 fps= 29 q=-1.0 size=   15308KiB time=00:00:15.65 bitrate=8012.9kbits/s speed=0.974x    frame=  496 fps= 30 q=-1.0 size=   15455KiB time=00:00:16.48 bitrate=7679.4kbits/s speed=0.995x    frame=  530 fps= 31 q=-1.0 size=   16699KiB time=00:00:17.60 bitrate=7772.4kbits/s speed=1.03x    frame=  546 fps= 31 q=-1.0 size=   17002KiB time=00:00:18.10 bitrate=7695.1kbits/s speed=1.03x    frame=  561 fps= 31 q=-1.0 size=   17401KiB time=00:00:18.63 bitrate=7650.0kbits/s speed=1.03x    frame=  573 fps= 31 q=-1.0 size=   17532KiB time=00:00:19.13 bitrate=7506.5kbits/s speed=1.03x    frame=  592 fps= 31 q=-1.0 size=   18791KiB time=00:00:19.63 bitrate=7840.6kbits/s speed=1.03x    frame=  607 fps= 31 q=-1.0 size=   19240KiB time=00:00:20.16 bitrate=7815.4kbits/s speed=1.03x    frame=  623 fps= 31 q=-1.0 size=   19854KiB time=00:00:20.70 bitrate=7857.1kbits/s speed=1.03x    frame=  638 fps= 31 q=-1.0 size=   20170KiB time=00:00:21.20 bitrate=7794.0kbits/s speed=1.02x    frame=  653 fps= 31 q=-1.0 size=   20433KiB time=00:00:21.73 bitrate=7702.0kbits/s speed=1.02x    frame=  669 fps= 31 q=-1.0 size=   21706KiB time=00:00:22.23 bitrate=7997.5kbits/s speed=1.02x    frame=  685 fps= 31 q=-1.0 size=   22460KiB time=00:00:22.76 bitrate=8081.8kbits/s speed=1.02x    frame=  700 fps= 31 q=-1.0 size=   22828KiB time=00:00:23.26 bitrate=8037.6kbits/s speed=1.02x    frame=  716 fps= 31 q=-1.0 size=   23045KiB time=00:00:23.76 bitrate=7943.4kbits/s speed=1.02x    frame=  732 fps= 31 q=-1.0 size=   23174KiB time=00:00:24.33 bitrate=7801.7kbits/s speed=1.02x    frame=  747 fps= 31 q=-1.0 size=   23985KiB time=00:00:24.80 bitrate=7922.6kbits/s speed=1.02x    frame=  762 fps= 31 q=-1.0 size=   24232KiB time=00:00:25.33 bitrate=7836.0kbits/s speed=1.02x    frame=  778 fps= 31 q=-1.0 size=   24433KiB time=00:00:25.86 bitrate=7737.9kbits/s speed=1.02x    frame=  793 fps= 31 q=-1.0 size=   24732KiB time=00:00:26.36 bitrate=7684.1kbits/s speed=1.02x    frame=  809 fps= 31 q=-1.0 size=   25188KiB time=00:00:26.90 bitrate=7670.7kbits/s speed=1.02x    frame=  819 fps= 30 q=-1.0 size=   25261KiB time=00:00:27.40 bitrate=7552.4kbits/s speed=1.02x    frame=  840 fps= 31 q=-1.0 size=   26649KiB time=00:00:27.90 bitrate=7824.6kbits/s speed=1.02x    frame=  856 fps= 31 q=-1.0 size=   27086KiB time=00:00:28.43 bitrate=7803.8kbits/s speed=1.02x    frame=  871 fps= 31 q=-1.0 size=   27659KiB time=00:00:28.93 bitrate=7831.1kbits/s speed=1.02x    frame=  887 fps= 31 q=-1.0 size=   27937KiB time=00:00:29.46 bitrate=7766.6kbits/s speed=1.02x    frame=  899 fps= 30 q=-1.0 size=   28162KiB time=00:00:30.00 bitrate=7690.0kbits/s speed=1.02x    frame=  918 fps= 31 q=-1.0 size=   29484KiB time=00:00:30.53 bitrate=7910.4kbits/s speed=1.02x    frame=  933 fps= 31 q=-1.0 size=   30195KiB time=00:00:31.03 bitrate=7970.7kbits/s speed=1.02x    frame=  949 fps= 31 q=-1.0 size=   30571KiB time=00:00:31.56 bitrate=7933.5kbits/s speed=1.02x    frame=  964 fps= 31 q=-1.0 size=   30798KiB time=00:00:32.06 bitrate=7867.9kbits/s speed=1.02x    frame=  980 fps= 31 q=-1.0 size=   30908KiB time=00:00:32.60 bitrate=7766.8kbits/s speed=1.02x    frame=  996 fps= 31 q=-1.0 size=   31766KiB time=00:00:33.13 bitrate=7853.8kbits/s speed=1.02x    frame= 1011 fps= 31 q=-1.0 size=   31996KiB time=00:00:33.63 bitrate=7793.2kbits/s speed=1.02x    frame= 1026 fps= 31 q=-1.0 size=   32212KiB time=00:00:34.13 bitrate=7730.9kbits/s speed=1.01x    frame= 1042 fps= 31 q=-1.0 size=   32510KiB time=00:00:34.66 bitrate=7682.4kbits/s speed=1.01x    frame= 1058 fps= 31 q=-1.0 size=   32931KiB time=00:00:35.20 bitrate=7663.9kbits/s speed=1.02x    frame= 1071 fps= 30 q=-1.0 size=   33840KiB time=00:00:35.66 bitrate=7772.4kbits/s speed=1.01x    frame= 1089 fps= 30 q=-1.0 size=   34393KiB time=00:00:36.23 bitrate=7775.9kbits/s speed=1.01x    frame= 1105 fps= 30 q=-1.0 size=   34828KiB time=00:00:36.73 bitrate=7767.0kbits/s speed=1.01x    frame= 1120 fps= 30 q=-1.0 size=   35437KiB time=00:00:37.23 bitrate=7796.8kbits/s speed=1.01x    frame= 1136 fps= 30 q=-1.0 size=   35748KiB time=00:00:37.76 bitrate=7754.2kbits/s speed=1.01x    frame= 1145 fps= 30 q=-1.0 size=   35890KiB time=00:00:38.23 bitrate=7689.9kbits/s speed=1.01x    frame= 1165 fps= 30 q=-1.0 size=   37218KiB time=00:00:38.80 bitrate=7858.0kbits/s speed=1.01x    frame= 1182 fps= 30 q=-1.0 size=   38068KiB time=00:00:39.30 bitrate=7935.3kbits/s speed=1.01x    frame= 1197 fps= 30 q=-1.0 size=   38369KiB time=00:00:39.83 bitrate=7890.9kbits/s speed=1.01x    frame= 1213 fps= 30 q=-1.0 size=   38555KiB time=00:00:40.36 bitrate=7824.4kbits/s speed=1.01x    frame= 1228 fps= 30 q=-1.0 size=   38638KiB time=00:00:40.86 bitrate=7745.2kbits/s speed=1.01x    frame= 1244 fps= 30 q=-1.0 size=   39554KiB time=00:00:41.40 bitrate=7826.7kbits/s speed=1.01x    frame= 1259 fps= 30 q=-1.0 size=   39733KiB time=00:00:41.86 bitrate=7774.5kbits/s speed=1.01x    frame= 1275 fps= 30 q=-1.0 size=   40000KiB time=00:00:42.43 bitrate=7722.2kbits/s speed=1.01x    frame= 1290 fps= 30 q=-1.0 size=   40244KiB time=00:00:42.93 bitrate=7678.9kbits/s speed=1.01x    frame= 1306 fps= 30 q=-1.0 size=   40688KiB time=00:00:43.46 bitrate=7668.4kbits/s speed=1.01x    frame= 1321 fps= 30 q=-1.0 size=   41663KiB time=00:00:43.93 bitrate=7768.6kbits/s speed=1.01x    frame= 1336 fps= 30 q=-1.0 size=   42210KiB time=00:00:44.43 bitrate=7782.1kbits/s speed=1.01x    frame= 1351 fps= 30 q=-1.0 size=   42556KiB time=00:00:45.00 bitrate=7747.1kbits/s speed=1.01x    frame= 1367 fps= 30 q=-1.0 size=   43170KiB time=00:00:45.50 bitrate=7772.5kbits/s speed=1.01x    frame= 1383 fps= 30 q=-1.0 size=   43545KiB time=00:00:46.03 bitrate=7749.1kbits/s speed=1.01x    frame= 1391 fps= 30 q=-1.0 size=   43619KiB time=00:00:46.56 bitrate=7673.5kbits/s speed=1.01x    frame= 1402 fps= 30 q=-1.0 size=   44688KiB time=00:00:46.76 bitrate=7827.9kbits/s speed=   1x    frame= 1430 fps= 30 q=-1.0 size=   45799KiB time=00:00:47.60 bitrate=7882.0kbits/s speed=1.01x    frame= 1446 fps= 30 q=-1.0 size=   46140KiB time=00:00:48.13 bitrate=7852.7kbits/s speed=1.01x    frame= 1461 fps= 30 q=-1.0 size=   46289KiB time=00:00:48.60 bitrate=7802.5kbits/s speed=1.01x    frame= 1477 fps= 30 q=-1.0 size=   46368KiB time=00:00:49.13 bitrate=7731.0kbits/s speed=1.01x    frame= 1492 fps= 30 q=-1.0 size=   47290KiB time=00:00:49.66 bitrate=7800.0kbits/s speed=1.01x    frame= 1508 fps= 30 q=-1.0 size=   47514KiB time=00:00:50.20 bitrate=7753.8kbits/s speed=1.01x    frame= 1523 fps= 30 q=-1.0 size=   47768KiB time=00:00:50.70 bitrate=7718.3kbits/s speed=1.01x    frame= 1539 fps= 30 q=-1.0 size=   48216KiB time=00:00:51.23 bitrate=7709.6kbits/s speed=1.01x    frame= 1554 fps= 30 q=-1.0 size=   48434KiB time=00:00:51.73 bitrate=7669.6kbits/s speed=1.01x    frame= 1570 fps= 30 q=-1.0 size=   49512KiB time=00:00:52.23 bitrate=7765.2kbits/s speed=1.01x    frame= 1585 fps= 30 q=-1.0 size=   50039KiB time=00:00:52.76 bitrate=7768.5kbits/s speed=1.01x    frame= 1601 fps= 30 q=-1.0 size=   50654KiB time=00:00:53.26 bitrate=7790.1kbits/s speed=1.01x    frame= 1616 fps= 30 q=-1.0 size=   50955KiB time=00:00:53.80 bitrate=7758.9kbits/s speed=1.01x    frame= 1632 fps= 30 q=-1.0 size=   51319KiB time=00:00:54.33 bitrate=7737.5kbits/s speed=1.01x    frame= 1646 fps= 30 q=-1.0 size=   52294KiB time=00:00:54.80 bitrate=7817.4kbits/s speed=1.01x    frame= 1663 fps= 30 q=-1.0 size=   53152KiB time=00:00:55.36 bitrate=7864.3kbits/s speed=1.01x    frame= 1678 fps= 30 q=-1.0 size=   53609KiB time=00:00:55.86 bitrate=7860.9kbits/s speed=1.01x    frame= 1694 fps= 30 q=-1.0 size=   53901KiB time=00:00:56.40 bitrate=7829.0kbits/s speed=1.01x    frame= 1709 fps= 30 q=-1.0 size=   54045KiB time=00:00:56.90 bitrate=7781.0kbits/s speed=1.01x    frame= 1723 fps= 30 q=-1.0 size=   54097KiB time=00:00:57.40 bitrate=7720.6kbits/s speed=1.01x    frame= 1740 fps= 30 q=-1.0 size=   55051KiB time=00:00:57.90 bitrate=7789.0kbits/s speed=1.01x    frame= 1756 fps= 30 q=-1.0 size=   55295KiB time=00:00:58.46 bitrate=7747.7kbits/s speed=1.01x    frame= 1772 fps= 30 q=-1.0 size=   55511KiB time=00:00:59.00 bitrate=7707.5kbits/s speed=1.01x    frame= 1787 fps= 30 q=-1.0 size=   55989KiB time=00:00:59.46 bitrate=7712.9kbits/s speed=1.01x    frame= 1803 fps= 30 q=-1.0 size=   56175KiB time=00:01:00.03 bitrate=7665.5kbits/s speed=1.01x    frame= 1819 fps= 30 q=-1.0 size=   57338KiB time=00:01:00.56 bitrate=7755.3kbits/s speed=1.01x    frame= 1835 fps= 30 q=-1.0 size=   57876KiB time=00:01:01.06 bitrate=7764.0kbits/s speed=1.01x    frame= 1850 fps= 30 q=-1.0 size=   58481KiB time=00:01:01.60 bitrate=7777.3kbits/s speed=1.01x    frame= 1865 fps= 30 q=-1.0 size=   58761KiB time=00:01:02.10 bitrate=7751.5kbits/s speed=1.01x    frame= 1881 fps= 30 q=-1.0 size=   59069KiB time=00:01:02.63 bitrate=7725.9kbits/s speed=1.01x    frame= 1894 fps= 30 q=-1.0 size=   60145KiB time=00:01:03.10 bitrate=7808.4kbits/s speed=1.01x    frame= 1912 fps= 30 q=-1.0 size=   60977KiB time=00:01:03.63 bitrate=7850.0kbits/s speed=1.01x    frame= 1927 fps= 30 q=-1.0 size=   61352KiB time=00:01:04.16 bitrate=7832.7kbits/s speed=1.01x    frame= 1943 fps= 30 q=-1.0 size=   61642KiB time=00:01:04.70 bitrate=7804.8kbits/s speed=1.01x    frame= 1958 fps= 30 q=-1.0 size=   61796KiB time=00:01:05.20 bitrate=7764.3kbits/s speed=1.01x    frame= 1969 fps= 30 q=-1.0 size=   61825KiB time=00:01:05.73 bitrate=7705.0kbits/s speed=1.01x    frame= 1990 fps= 30 q=-1.0 size=   62828KiB time=00:01:06.26 bitrate=7766.9kbits/s speed=1.01x    frame= 2005 fps= 30 q=-1.0 size=   63062KiB time=00:01:06.73 bitrate=7741.3kbits/s speed=1.01x    frame= 2020 fps= 30 q=-1.0 size=   63310KiB time=00:01:07.26 bitrate=7710.1kbits/s speed=1.01x    frame= 2036 fps= 30 q=-1.0 size=   63766KiB time=00:01:07.80 bitrate=7704.6kbits/s speed=1.01x    frame= 2049 fps= 30 q=-1.0 size=   63904KiB time=00:01:08.30 bitrate=7664.7kbits/s speed=1.01x    frame= 2067 fps= 30 q=-1.0 size=   65161KiB time=00:01:08.80 bitrate=7758.7kbits/s speed=1.01x    frame= 2082 fps= 30 q=-1.0 size=   65606KiB time=00:01:09.33 bitrate=7751.6kbits/s speed=1.01x    frame= 2098 fps= 30 q=-1.0 size=   66219KiB time=00:01:09.83 bitrate=7768.0kbits/s speed=1.01x    frame= 2113 fps= 30 q=-1.0 size=   66495KiB time=00:01:10.33 bitrate=7744.9kbits/s speed=1.01x    frame= 2129 fps= 30 q=-1.0 size=   66805KiB time=00:01:10.90 bitrate=7718.8kbits/s speed=1.01x    frame= 2144 fps= 30 q=-1.0 size=   68071KiB time=00:01:11.40 bitrate=7810.1kbits/s speed=1.01x    frame= 2160 fps= 30 q=-1.0 size=   68823KiB time=00:01:11.93 bitrate=7837.8kbits/s speed=1.01x    frame= 2175 fps= 30 q=-1.0 size=   69140KiB time=00:01:12.40 bitrate=7823.1kbits/s speed=1.01x    frame= 2190 fps= 30 q=-1.0 size=   69408KiB time=00:01:12.93 bitrate=7796.0kbits/s speed=1.01x    frame= 2206 fps= 30 q=-1.0 size=   69540KiB time=00:01:13.46 bitrate=7754.1kbits/s speed=1.01x    frame= 2215 fps= 30 q=-1.0 size=   69554KiB time=00:01:13.76 bitrate=7724.1kbits/s speed=   1x    frame= 2237 fps= 30 q=-1.0 size=   70598KiB time=00:01:14.46 bitrate=7766.4kbits/s speed=1.01x    frame= 2252 fps= 30 q=-1.0 size=   70798KiB time=00:01:15.00 bitrate=7733.1kbits/s speed=1.01x    frame= 2268 fps= 30 q=-1.0 size=   71102KiB time=00:01:15.53 bitrate=7711.4kbits/s speed=1.01x    frame= 2283 fps= 30 q=-1.0 size=   71500KiB time=00:01:16.03 bitrate=7703.6kbits/s speed=1.01x    frame= 2295 fps= 30 q=-1.0 size=   71632KiB time=00:01:16.53 bitrate=7667.4kbits/s speed=1.01x    frame= 2314 fps= 30 q=-1.0 size=   72891KiB time=00:01:17.06 bitrate=7748.2kbits/s speed=1.01x    frame= 2330 fps= 30 q=-1.0 size=   73414KiB time=00:01:17.56 bitrate=7753.5kbits/s speed=1.01x    frame= 2345 fps= 30 q=-1.0 size=   73954KiB time=00:01:18.10 bitrate=7757.1kbits/s speed=1.01x    frame= 2361 fps= 30 q=-1.0 size=   74274KiB time=00:01:18.60 bitrate=7741.2kbits/s speed=1.01x    frame= 2375 fps= 30 q=-1.0 size=   74533KiB time=00:01:19.13 bitrate=7715.8kbits/s speed=1.01x    frame= 2391 fps= 30 q=-1.0 size=   75805KiB time=00:01:19.63 bitrate=7798.2kbits/s speed=1.01x    frame= 2407 fps= 30 q=-1.0 size=   76560KiB time=00:01:20.16 bitrate=7823.5kbits/s speed=1.01x    frame= 2423 fps= 30 q=-1.0 size=   76934KiB time=00:01:20.66 bitrate=7813.0kbits/s speed=1.01x    frame= 2438 fps= 30 q=-1.0 size=   77145KiB time=00:01:21.20 bitrate=7782.9kbits/s speed=1.01x    frame= 2454 fps= 30 q=-1.0 size=   77274KiB time=00:01:21.73 bitrate=7745.0kbits/s speed=1.01x    frame= 2461 fps= 30 q=-1.0 size=   77283KiB time=00:01:22.23 bitrate=7698.8kbits/s speed=1.01x    frame= 2485 fps= 30 q=-1.0 size=   78339KiB time=00:01:22.76 bitrate=7753.8kbits/s speed=1.01x    frame= 2500 fps= 30 q=-1.0 size=   78533KiB time=00:01:23.26 bitrate=7726.2kbits/s speed=1.01x    frame= 2516 fps= 30 q=-1.0 size=   78839KiB time=00:01:23.76 bitrate=7710.1kbits/s speed=1.01x    frame= 2531 fps= 30 q=-1.0 size=   79237KiB time=00:01:24.30 bitrate=7700.0kbits/s speed=1.01x    frame= 2541 fps= 30 q=-1.0 size=   79361KiB time=00:01:24.83 bitrate=7663.5kbits/s speed=1.01x    frame= 2563 fps= 30 q=-1.0 size=   80758KiB time=00:01:25.36 bitrate=7749.8kbits/s speed=1.01x    frame= 2578 fps= 30 q=-1.0 size=   81186KiB time=00:01:25.86 bitrate=7745.4kbits/s speed=1.01x    frame= 2593 fps= 30 q=-1.0 size=   81759KiB time=00:01:26.36 bitrate=7755.0kbits/s speed=1.01x    frame= 2609 fps= 30 q=-1.0 size=   82037KiB time=00:01:26.90 bitrate=7733.6kbits/s speed=1.01x    frame= 2621 fps= 30 q=-1.0 size=   82262KiB time=00:01:27.43 bitrate=7707.5kbits/s speed=1.01x    frame= 2640 fps= 30 q=-1.0 size=   83584KiB time=00:01:27.93 bitrate=7786.8kbits/s speed=1.01x    frame= 2656 fps= 30 q=-1.0 size=   84357KiB time=00:01:28.46 bitrate=7811.4kbits/s speed=1.01x    frame= 2671 fps= 30 q=-1.0 size=   84671KiB time=00:01:28.96 bitrate=7796.5kbits/s speed=1.01x    frame= 2687 fps= 30 q=-1.0 size=   84902KiB time=00:01:29.50 bitrate=7771.2kbits/s speed=1.01x    frame= 2702 fps= 30 q=-1.0 size=   85008KiB time=00:01:30.00 bitrate=7737.6kbits/s speed=1.01x    frame= 2718 fps= 30 q=-1.0 size=   85866KiB time=00:01:30.53 bitrate=7769.6kbits/s speed=1.01x    frame= 2733 fps= 30 q=-1.0 size=   86096KiB time=00:01:31.03 bitrate=7747.7kbits/s speed=1.01x    frame= 2749 fps= 30 q=-1.0 size=   86364KiB time=00:01:31.56 bitrate=7726.5kbits/s speed=1.01x    frame= 2764 fps= 30 q=-1.0 size=   86610KiB time=00:01:32.06 bitrate=7706.5kbits/s speed=1.01x    frame= 2780 fps= 30 q=-1.0 size=   87026KiB time=00:01:32.56 bitrate=7701.7kbits/s speed=1.01x    frame= 2791 fps= 30 q=-1.0 size=   87882KiB time=00:01:33.10 bitrate=7732.9kbits/s speed=1.01x    frame= 2811 fps= 30 q=-1.0 size=   88493KiB time=00:01:33.60 bitrate=7745.1kbits/s speed=1.01x    frame= 2826 fps= 30 q=-1.0 size=   88922KiB time=00:01:34.13 bitrate=7738.5kbits/s speed=1.01x    frame= 2842 fps= 30 q=-1.0 size=   89537KiB time=00:01:34.66 bitrate=7748.1kbits/s speed=1.01x    frame= 2857 fps= 30 q=-1.0 size=   89849KiB time=00:01:35.16 bitrate=7734.2kbits/s speed=1.01x    frame= 2867 fps= 30 q=-1.0 size=   89990KiB time=00:01:35.70 bitrate=7703.3kbits/s speed=1.01x    frame= 2887 fps= 30 q=-1.0 size=   91318KiB time=00:01:36.23 bitrate=7773.6kbits/s speed=1.01x    frame= 2904 fps= 30 q=-1.0 size=   92162KiB time=00:01:36.73 bitrate=7804.9kbits/s speed=1.01x    frame= 2919 fps= 30 q=-1.0 size=   92469KiB time=00:01:37.23 bitrate=7790.6kbits/s speed=1.01x    frame= 2935 fps= 30 q=-1.0 size=   92655KiB time=00:01:37.73 bitrate=7766.3kbits/s speed=1.01x    frame= 2951 fps= 30 q=-1.0 size=   92738KiB time=00:01:38.30 bitrate=7728.5kbits/s speed=1.01x    frame= 2966 fps= 30 q=-1.0 size=   93654KiB time=00:01:38.76 bitrate=7767.9kbits/s speed=1.01x    frame= 2981 fps= 30 q=-1.0 size=   93833KiB time=00:01:39.30 bitrate=7741.0kbits/s speed=1.01x    frame= 2997 fps= 30 q=-1.0 size=   94100KiB time=00:01:39.83 bitrate=7721.5kbits/s speed=1.01x    frame= 3012 fps= 30 q=-1.0 size=   94344KiB time=00:01:40.33 bitrate=7703.0kbits/s speed=1.01x    frame= 3028 fps= 30 q=-1.0 size=   94788KiB time=00:01:40.86 bitrate=7698.3kbits/s speed=1.01x    frame= 3043 fps= 30 q=-1.0 size=   95763KiB time=00:01:41.36 bitrate=7739.1kbits/s speed=1.01x    frame= 3058 fps= 30 q=-1.0 size=   96310KiB time=00:01:41.86 bitrate=7745.1kbits/s speed=   1x    frame= 3073 fps= 30 q=-1.0 size=   96656KiB time=00:01:42.40 bitrate=7732.5kbits/s speed=   1x    frame= 3089 fps= 30 q=-1.0 size=   97270KiB time=00:01:42.90 bitrate=7743.8kbits/s speed=   1x    frame= 3105 fps= 30 q=-1.0 size=   97643KiB time=00:01:43.43 bitrate=7733.4kbits/s speed=   1x    frame= 3114 fps= 30 q=-1.0 size=   98478KiB time=00:01:43.93 bitrate=7762.0kbits/s speed=   1x    frame= 3133 fps= 30 q=-1.0 size=   99047KiB time=00:01:44.43 bitrate=7769.5kbits/s speed=   1x    frame= 3152 fps= 30 q=-1.0 size=   99899KiB time=00:01:44.96 bitrate=7796.5kbits/s speed=   1x    frame= 3168 fps= 30 q=-1.0 size=  100236KiB time=00:01:45.53 bitrate=7780.8kbits/s speed=   1x    frame= 3183 fps= 30 q=-1.0 size=  100389KiB time=00:01:46.03 bitrate=7755.9kbits/s speed=   1x    frame= 3199 fps= 30 q=-1.0 size=  100468KiB time=00:01:46.56 bitrate=7723.2kbits/s speed=1.01x    frame= 3214 fps= 30 q=-1.0 size=  101390KiB time=00:01:47.03 bitrate=7760.1kbits/s speed=   1x    frame= 3230 fps= 30 q=-1.0 size=  101614KiB time=00:01:47.60 bitrate=7736.3kbits/s speed=   1x    frame= 3245 fps= 30 q=-1.0 size=  101868KiB time=00:01:48.10 bitrate=7719.7kbits/s speed=   1x    frame= 3261 fps= 30 q=-1.0 size=  102316KiB time=00:01:48.63 bitrate=7715.6kbits/s speed=   1x    frame= 3277 fps= 30 q=-1.0 size=  102535KiB time=00:01:49.13 bitrate=7696.7kbits/s speed=   1x    frame= 3292 fps= 30 q=-1.0 size=  103617KiB time=00:01:49.66 bitrate=7740.1kbits/s speed=   1x    frame= 3308 fps= 30 q=-1.0 size=  104141KiB time=00:01:50.20 bitrate=7741.6kbits/s speed=   1x    frame= 3323 fps= 30 q=-1.0 size=  104753KiB time=00:01:50.70 bitrate=7751.9kbits/s speed=   1x    frame= 3339 fps= 30 q=-1.0 size=  105061KiB time=00:01:51.23 bitrate=7737.5kbits/s speed=   1x    frame= 3355 fps= 30 q=-1.0 size=  105423KiB time=00:01:51.76 bitrate=7727.1kbits/s speed=   1x    frame= 3368 fps= 30 q=-1.0 size=  106394KiB time=00:01:52.23 bitrate=7765.8kbits/s speed=   1x    frame= 3386 fps= 30 q=-1.0 size=  107339KiB time=00:01:52.76 bitrate=7797.7kbits/s speed=   1x    frame= 3401 fps= 30 q=-1.0 size=  107717KiB time=00:01:53.26 bitrate=7790.6kbits/s speed=   1x    frame= 3416 fps= 30 q=-1.0 size=  108001KiB time=00:01:53.80 bitrate=7774.5kbits/s speed=   1x    frame= 3432 fps= 30 q=-1.0 size=  108146KiB time=00:01:54.30 bitrate=7750.9kbits/s speed=   1x    frame= 3445 fps= 30 q=-1.0 size=  108197KiB time=00:01:54.83 bitrate=7718.6kbits/s speed=   1x    frame= 3463 fps= 30 q=-1.0 size=  109152KiB time=00:01:55.36 bitrate=7750.7kbits/s speed=   1x    frame= 3478 fps= 30 q=-1.0 size=  109395KiB time=00:01:55.86 bitrate=7734.5kbits/s speed=   1x    frame= 3494 fps= 30 q=-1.0 size=  109610KiB time=00:01:56.36 bitrate=7716.4kbits/s speed=   1x    frame= 3510 fps= 30 q=-1.0 size=  110096KiB time=00:01:56.93 bitrate=7713.0kbits/s speed=   1x    frame= 3525 fps= 30 q=-1.0 size=  110275KiB time=00:01:57.40 bitrate=7694.8kbits/s speed=   1x    frame= 3541 fps= 30 q=-1.0 size=  111438KiB time=00:01:57.93 bitrate=7740.8kbits/s speed=   1x    frame= 3556 fps= 30 q=-1.0 size=  111967KiB time=00:01:58.43 bitrate=7744.8kbits/s speed=   1x    frame= 3571 fps= 30 q=-1.0 size=  112527KiB time=00:01:58.96 bitrate=7748.5kbits/s speed=   1x    frame= 3587 fps= 30 q=-1.0 size=  112861KiB time=00:01:59.50 bitrate=7736.9kbits/s speed=   1x    frame= 3602 fps= 30 q=-1.0 size=  113163KiB time=00:02:00.00 bitrate=7725.3kbits/s speed=   1x    frame= 3618 fps= 30 q=-1.0 size=  114353KiB time=00:02:00.53 bitrate=7772.0kbits/s speed=   1x    frame= 3633 fps= 30 q=-1.0 size=  115075KiB time=00:02:01.03 bitrate=7788.7kbits/s speed=   1x    frame= 3649 fps= 30 q=-1.0 size=  115452KiB time=00:02:01.56 bitrate=7779.9kbits/s speed=   1x    frame= 3664 fps= 30 q=-1.0 size=  115736KiB time=00:02:02.06 bitrate=7767.2kbits/s speed=   1x    frame= 3680 fps= 30 q=-1.0 size=  115893KiB time=00:02:02.60 bitrate=7743.8kbits/s speed=   1x    frame= 3691 fps= 30 q=-1.0 size=  115925KiB time=00:02:03.10 bitrate=7714.5kbits/s speed=   1x    frame= 3711 fps= 30 q=-1.0 size=  116924KiB time=00:02:03.63 bitrate=7747.4kbits/s speed=   1x    frame= 3726 fps= 30 q=-1.0 size=  117131KiB time=00:02:04.13 bitrate=7729.9kbits/s speed=   1x    frame= 3742 fps= 30 q=-1.0 size=  117410KiB time=00:02:04.66 bitrate=7715.1kbits/s speed=   1x    frame= 3757 fps= 30 q=-1.0 size=  117829KiB time=00:02:05.16 bitrate=7711.7kbits/s speed=   1x    frame= 3771 fps= 30 q=-1.0 size=  118004KiB time=00:02:05.66 bitrate=7692.5kbits/s speed=   1x    frame= 3788 fps= 30 q=-1.0 size=  119254KiB time=00:02:06.16 bitrate=7743.2kbits/s speed=   1x    frame= 3803 fps= 30 q=-1.0 size=  119704KiB time=00:02:06.70 bitrate=7739.7kbits/s speed=   1x    frame= 3819 fps= 30 q=-1.0 size=  120317KiB time=00:02:07.23 bitrate=7746.7kbits/s speed=   1x    frame= 3835 fps= 30 q=-1.0 size=  120594KiB time=00:02:07.76 bitrate=7732.1kbits/s speed=   1x    frame= 3850 fps= 30 q=-1.0 size=  120899KiB time=00:02:08.23 bitrate=7723.5kbits/s speed=   1x    frame= 3865 fps= 30 q=-1.0 size=  122082KiB time=00:02:08.76 bitrate=7766.7kbits/s speed=   1x    frame= 3881 fps= 30 q=-1.0 size=  122812KiB time=00:02:09.30 bitrate=7780.9kbits/s speed=   1x    frame= 3896 fps= 30 q=-1.0 size=  123235KiB time=00:02:09.80 bitrate=7777.7kbits/s speed=   1x    frame= 3912 fps= 30 q=-1.0 size=  123515KiB time=00:02:10.33 bitrate=7763.4kbits/s speed=   1x    frame= 3927 fps= 30 q=-1.0 size=  123625KiB time=00:02:10.83 bitrate=7740.6kbits/s speed=   1x    frame= 3937 fps= 30 q=-1.0 size=  123654KiB time=00:02:11.36 bitrate=7711.0kbits/s speed=   1x    frame= 3958 fps= 30 q=-1.0 size=  124657KiB time=00:02:11.86 bitrate=7744.1kbits/s speed=   1x    frame= 3974 fps= 30 q=-1.0 size=  124898KiB time=00:02:12.40 bitrate=7727.8kbits/s speed=   1x    frame= 3989 fps= 30 q=-1.0 size=  125195KiB time=00:02:12.90 bitrate=7717.1kbits/s speed=   1x    frame= 4004 fps= 30 q=-1.0 size=  125600KiB time=00:02:13.40 bitrate=7713.0kbits/s speed=   1x    frame= 4017 fps= 30 q=-1.0 size=  125732KiB time=00:02:13.93 bitrate=7690.4kbits/s speed=   1x    frame= 4035 fps= 30 q=-1.0 size=  126989KiB time=00:02:14.43 bitrate=7738.4kbits/s speed=   1x    frame= 4051 fps= 30 q=-1.0 size=  127439KiB time=00:02:14.96 bitrate=7735.1kbits/s speed=   1x    frame= 4066 fps= 30 q=-1.0 size=  128047KiB time=00:02:15.46 bitrate=7743.3kbits/s speed=   1x    frame= 4082 fps= 30 q=-1.0 size=  128374KiB time=00:02:16.00 bitrate=7732.7kbits/s speed=   1x    frame= 4097 fps= 30 q=-1.0 size=  128633KiB time=00:02:16.50 bitrate=7719.9kbits/s speed=   1x    frame= 4113 fps= 30 q=-1.0 size=  129905KiB time=00:02:17.03 bitrate=7765.9kbits/s speed=   1x    frame= 4128 fps= 30 q=-1.0 size=  130651KiB time=00:02:17.53 bitrate=7782.1kbits/s speed=   1x    frame= 4144 fps= 30 q=-1.0 size=  131028KiB time=00:02:18.06 bitrate=7774.4kbits/s speed=   1x    frame= 4160 fps= 30 q=-1.0 size=  131245KiB time=00:02:18.56 bitrate=7759.2kbits/s speed=   1x    frame= 4175 fps= 30 q=-1.0 size=  131373KiB time=00:02:19.10 bitrate=7736.9kbits/s speed=   1x    frame= 4191 fps= 30 q=-1.0 size=  132184KiB time=00:02:19.63 bitrate=7755.0kbits/s speed=   1x    frame= 4206 fps= 30 q=-1.0 size=  132432KiB time=00:02:20.13 bitrate=7741.8kbits/s speed=   1x    frame= 4222 fps= 30 q=-1.0 size=  132632KiB time=00:02:20.66 bitrate=7724.1kbits/s speed=   1x    frame= 4237 fps= 30 q=-1.0 size=  132932KiB time=00:02:21.16 bitrate=7714.1kbits/s speed=   1x    frame= 4252 fps= 30 q=-1.0 size=  133337KiB time=00:02:21.66 bitrate=7710.3kbits/s speed=   1x    frame= 4263 fps= 30 q=-1.0 size=  133461KiB time=00:02:22.20 bitrate=7688.5kbits/s speed=   1x    frame= 4284 fps= 30 q=-1.0 size=  134848KiB time=00:02:22.73 bitrate=7739.5kbits/s speed=   1x    frame= 4299 fps= 30 q=-1.0 size=  135248KiB time=00:02:23.20 bitrate=7737.1kbits/s speed=   1x    frame= 4314 fps= 30 q=-1.0 size=  135859KiB time=00:02:23.73 bitrate=7743.2kbits/s speed=   1x    frame= 4330 fps= 30 q=-1.0 size=  136135KiB time=00:02:24.23 bitrate=7732.1kbits/s speed=   1x    frame= 4343 fps= 30 q=-1.0 size=  136362KiB time=00:02:24.80 bitrate=7714.6kbits/s speed=   1x    frame= 4361 fps= 30 q=-1.0 size=  137682KiB time=00:02:25.30 bitrate=7762.5kbits/s speed=   1x    frame= 4377 fps= 30 q=-1.0 size=  138395KiB time=00:02:25.83 bitrate=7774.2kbits/s speed=   1x    frame= 4392 fps= 30 q=-1.0 size=  138764KiB time=00:02:26.33 bitrate=7768.3kbits/s speed=   1x    frame= 4408 fps= 30 q=-1.0 size=  138998KiB time=00:02:26.83 bitrate=7754.9kbits/s speed=   1x    frame= 4423 fps= 30 q=-1.0 size=  139107KiB time=00:02:27.36 bitrate=7732.8kbits/s speed=   1x    frame= 4439 fps= 30 q=-1.0 size=  139962KiB time=00:02:27.90 bitrate=7752.3kbits/s speed=   1x    frame= 4454 fps= 30 q=-1.0 size=  140168KiB time=00:02:28.40 bitrate=7737.6kbits/s speed=   1x    frame= 4470 fps= 30 q=-1.0 size=  140412KiB time=00:02:28.93 bitrate=7723.3kbits/s speed=   1x    frame= 4486 fps= 30 q=-1.0 size=  140710KiB time=00:02:29.46 bitrate=7712.1kbits/s speed=   1x    frame= 4501 fps= 30 q=-1.0 size=  141125KiB time=00:02:29.93 bitrate=7710.7kbits/s speed=   1x    frame= 4513 fps= 30 q=-1.0 size=  141982KiB time=00:02:30.36 bitrate=7735.2kbits/s speed=   1x    frame= 4532 fps= 30 q=-1.0 size=  142589KiB time=00:02:30.96 bitrate=7737.4kbits/s speed=   1x    frame= 4547 fps= 30 q=-1.0 size=  143021KiB time=00:02:31.50 bitrate=7733.5kbits/s speed=   1x    frame= 4563 fps= 30 q=-1.0 size=  143594KiB time=00:02:32.03 bitrate=7737.3kbits/s speed=   1x    frame= 4578 fps= 30 q=-1.0 size=  143870KiB time=00:02:32.53 bitrate=7726.7kbits/s speed=   1x    frame= 4589 fps= 30 q=-1.0 size=  144090KiB time=00:02:32.96 bitrate=7716.6kbits/s speed=   1x    frame= 4609 fps= 30 q=-1.0 size=  145418KiB time=00:02:33.56 bitrate=7757.3kbits/s speed=   1x    frame= 4625 fps= 30 q=-1.0 size=  146190KiB time=00:02:34.10 bitrate=7771.5kbits/s speed=   1x    frame= 4640 fps= 30 q=-1.0 size=  146562KiB time=00:02:34.60 bitrate=7766.1kbits/s speed=   1x    frame= 4656 fps= 30 q=-1.0 size=  146750KiB time=00:02:35.10 bitrate=7751.0kbits/s speed=   1x    frame= 4671 fps= 30 q=-1.0 size=  146837KiB time=00:02:35.63 bitrate=7729.0kbits/s speed=   1x    frame= 4687 fps= 30 q=-1.0 size=  147748KiB time=00:02:36.16 bitrate=7750.4kbits/s speed=   1x    frame= 4702 fps= 30 q=-1.0 size=  147932KiB time=00:02:36.66 bitrate=7735.3kbits/s speed=   1x    frame= 4718 fps= 30 q=-1.0 size=  148199KiB time=00:02:37.20 bitrate=7722.9kbits/s speed=   1x    frame= 4733 fps= 30 q=-1.0 size=  148440KiB time=00:02:37.70 bitrate=7711.0kbits/s speed=   1x    frame= 4748 fps= 30 q=-1.0 size=  148859KiB time=00:02:38.20 bitrate=7708.3kbits/s speed=   1x    frame= 4761 fps= 30 q=-1.0 size=  149769KiB time=00:02:38.73 bitrate=7729.3kbits/s speed=   1x    frame= 4780 fps= 30 q=-1.0 size=  150410KiB time=00:02:39.26 bitrate=7736.5kbits/s speed=   1x    frame= 4795 fps= 30 q=-1.0 size=  150756KiB time=00:02:39.73 bitrate=7731.6kbits/s speed=   1x    frame= 4811 fps= 30 q=-1.0 size=  151370KiB time=00:02:40.26 bitrate=7737.2kbits/s speed=   1x    frame= 4826 fps= 30 q=-1.0 size=  151677KiB time=00:02:40.80 bitrate=7727.2kbits/s speed=   1x    frame= 4835 fps= 30 q=-1.0 size=  151819KiB time=00:02:41.33 bitrate=7708.9kbits/s speed=   1x    frame= 4855 fps= 30 q=-1.0 size=  153147KiB time=00:02:41.83 bitrate=7752.3kbits/s speed=   1x    frame= 4873 fps= 30 q=-1.0 size=  153997KiB time=00:02:42.33 bitrate=7771.3kbits/s speed=   1x    frame= 4888 fps= 30 q=-1.0 size=  154299KiB time=00:02:42.86 bitrate=7761.1kbits/s speed=   1x    frame= 4904 fps= 30 q=-1.0 size=  154484KiB time=00:02:43.36 bitrate=7746.6kbits/s speed=   1x    frame= 4920 fps= 30 q=-1.0 size=  154568KiB time=00:02:43.93 bitrate=7724.0kbits/s speed=   1x    frame= 4935 fps= 30 q=-1.0 size=  155484KiB time=00:02:44.43 bitrate=7746.1kbits/s speed=   1x    frame= 4951 fps= 30 q=-1.0 size=  155710KiB time=00:02:44.96 bitrate=7732.3kbits/s speed=   1x    frame= 4966 fps= 30 q=-1.0 size=  155935KiB time=00:02:45.46 bitrate=7720.1kbits/s speed=   1x    frame= 4980 fps= 30 q=-1.0 size=  156172KiB time=00:02:45.96 bitrate=7708.6kbits/s speed=   1x    frame= 4997 fps= 30 q=-1.0 size=  156621KiB time=00:02:46.50 bitrate=7705.9kbits/s speed=   1x    frame= 5011 fps= 30 q=-1.0 size=  157591KiB time=00:02:46.96 bitrate=7732.0kbits/s speed=   1x    frame= 5028 fps= 30 q=-1.0 size=  158232KiB time=00:02:47.50 bitrate=7738.7kbits/s speed=   1x    frame= 5041 fps= 30 q=-1.0 size=  158485KiB time=00:02:48.06 bitrate=7724.9kbits/s speed=   1x    frame= 5059 fps= 30 q=-1.0 size=  159154KiB time=00:02:48.53 bitrate=7736.1kbits/s speed=   1x    frame= 5074 fps= 30 q=-1.0 size=  159473KiB time=00:02:49.06 bitrate=7727.1kbits/s speed=   1x    frame= 5085 fps= 30 q=-1.0 size=  160404KiB time=00:02:49.56 bitrate=7749.3kbits/s speed=   1x    frame= 5105 fps= 30 q=-1.0 size=  161287KiB time=00:02:50.10 bitrate=7767.6kbits/s speed=   1x    frame= 5121 fps= 30 q=-1.0 size=  161734KiB time=00:02:50.63 bitrate=7764.7kbits/s speed=   1x    frame= 5136 fps= 30 q=-1.0 size=  162064KiB time=00:02:51.13 bitrate=7757.9kbits/s speed=   1x    frame= 5152 fps= 30 q=-1.0 size=  162238KiB time=00:02:51.66 bitrate=7742.0kbits/s speed=   1x    frame= 5167 fps= 30 q=-1.0 size=  162296KiB time=00:02:52.16 bitrate=7722.4kbits/s speed=   1x    frame= 5183 fps= 30 q=-1.0 size=  163244KiB time=00:02:52.70 bitrate=7743.5kbits/s speed=   1x    frame= 5198 fps= 30 q=-1.0 size=  163443KiB time=00:02:53.20 bitrate=7730.5kbits/s speed=   1x    frame= 5214 fps= 30 q=-1.0 size=  163705KiB time=00:02:53.73 bitrate=7719.2kbits/s speed=   1x    frame= 5230 fps= 30 q=-1.0 size=  164145KiB time=00:02:54.26 bitrate=7716.2kbits/s speed=   1x    frame= 5246 fps= 30 q=-1.0 size=  164368KiB time=00:02:54.80 bitrate=7703.1kbits/s speed=   1x    frame= 5261 fps= 30 q=-1.0 size=  165445KiB time=00:02:55.26 bitrate=7733.0kbits/s speed=   1x    frame= 5277 fps= 30 q=-1.0 size=  165976KiB time=00:02:55.83 bitrate=7732.8kbits/s speed=   1x    frame= 5292 fps= 30 q=-1.0 size=  166622KiB time=00:02:56.30 bitrate=7742.3kbits/s speed=   1x    frame= 5307 fps= 30 q=-1.0 size=  166890KiB time=00:02:56.83 bitrate=7731.4kbits/s speed=   1x    frame= 5323 fps= 30 q=-1.0 size=  167252KiB time=00:02:57.33 bitrate=7726.3kbits/s speed=   1x    frame= 5338 fps= 30 q=-1.0 size=  168345KiB time=00:02:57.86 bitrate=7753.5kbits/s speed=   1x    frame= 5354 fps= 30 q=-1.0 size=  169168KiB time=00:02:58.40 bitrate=7768.1kbits/s speed=   1x    frame= 5369 fps= 30 q=-1.0 size=  169546KiB time=00:02:58.90 bitrate=7763.7kbits/s speed=   1x    frame= 5385 fps= 30 q=-1.0 size=  169835KiB time=00:02:59.43 bitrate=7753.8kbits/s speed=   1x    frame= 5400 fps= 30 q=-1.0 size=  169975KiB time=00:02:59.93 bitrate=7738.6kbits/s speed=   1x    frame= 5413 fps= 30 q=-1.0 size=  170025KiB time=00:03:00.46 bitrate=7718.0kbits/s speed=   1x    frame= 5431 fps= 30 q=-1.0 size=  170981KiB time=00:03:00.96 bitrate=7740.0kbits/s speed=   1x    frame= 5446 fps= 30 q=-1.0 size=  171224KiB time=00:03:01.46 bitrate=7729.6kbits/s speed=   1x    frame= 5462 fps= 30 q=-1.0 size=  171439KiB time=00:03:02.00 bitrate=7716.6kbits/s speed=   1x    frame= 5478 fps= 30 q=-1.0 size=  171925KiB time=00:03:02.53 bitrate=7715.9kbits/s speed=   1x    frame= 5493 fps= 30 q=-1.0 size=  172104KiB time=00:03:03.03 bitrate=7702.8kbits/s speed=   1x    frame= 5509 fps= 30 q=-1.0 size=  173266KiB time=00:03:03.56 bitrate=7732.3kbits/s speed=   1x    frame= 5524 fps= 30 q=-1.0 size=  173804KiB time=00:03:04.06 bitrate=7735.3kbits/s speed=   1x    frame= 5540 fps= 30 q=-1.0 size=  174410KiB time=00:03:04.56 bitrate=7741.2kbits/s speed=   1x    frame= 5555 fps= 30 q=-1.0 size=  174689KiB time=00:03:05.10 bitrate=7731.2kbits/s speed=   1x    frame= 5571 fps= 30 q=-1.0 size=  174998KiB time=00:03:05.63 bitrate=7722.7kbits/s speed=   1x    frame= 5586 fps= 30 q=-1.0 size=  176176KiB time=00:03:06.13 bitrate=7753.8kbits/s speed=   1x    frame= 5602 fps= 30 q=-1.0 size=  176906KiB time=00:03:06.66 bitrate=7763.6kbits/s speed=   1x    frame= 5617 fps= 30 q=-1.0 size=  177281KiB time=00:03:07.16 bitrate=7759.3kbits/s speed=   1x    frame= 5633 fps= 30 q=-1.0 size=  177570KiB time=00:03:07.70 bitrate=7749.9kbits/s speed=   1x    frame= 5648 fps= 30 q=-1.0 size=  177721KiB time=00:03:08.20 bitrate=7735.9kbits/s speed=   1x    frame= 5659 fps= 30 q=-1.0 size=  177754KiB time=00:03:08.70 bitrate=7716.8kbits/s speed=   1x    frame= 5679 fps= 30 q=-1.0 size=  178753KiB time=00:03:09.23 bitrate=7738.3kbits/s speed=   1x    frame= 5694 fps= 30 q=-1.0 size=  178960KiB time=00:03:09.73 bitrate=7726.9kbits/s speed=   1x    frame= 5710 fps= 30 q=-1.0 size=  179238KiB time=00:03:10.23 bitrate=7718.5kbits/s speed=   1x    frame= 5725 fps= 30 q=-1.0 size=  179657KiB time=00:03:10.76 bitrate=7714.9kbits/s speed=   1x    frame= 5739 fps= 30 q=-1.0 size=  179832KiB time=00:03:11.26 bitrate=7702.3kbits/s speed=   1x    frame= 5756 fps= 30 q=-1.0 size=  181083KiB time=00:03:11.80 bitrate=7734.3kbits/s speed=   1x    frame= 5765 fps= 30 q=-1.0 size=  181329KiB time=00:03:12.16 bitrate=7730.0kbits/s speed=   1x    frame= 5779 fps= 30 q=-1.0 size=  181671KiB time=00:03:12.60 bitrate=7727.1kbits/s speed=   1x    frame= 5803 fps= 30 q=-1.0 size=  182423KiB time=00:03:13.36 bitrate=7728.4kbits/s speed=   1x    frame= 5818 fps= 30 q=-1.0 size=  182728KiB time=00:03:13.86 bitrate=7721.3kbits/s speed=   1x    frame= 5834 fps= 30 q=-1.0 size=  184006KiB time=00:03:14.40 bitrate=7754.0kbits/s speed=   1x    frame= 5849 fps= 30 q=-1.0 size=  184641KiB time=00:03:14.90 bitrate=7760.8kbits/s speed=   1x    frame= 5865 fps= 30 q=-1.0 size=  185068KiB time=00:03:15.43 bitrate=7757.5kbits/s speed=   1x    frame= 5880 fps= 30 q=-1.0 size=  185336KiB time=00:03:15.93 bitrate=7748.9kbits/s speed=   1x    frame= 5896 fps= 30 q=-1.0 size=  185468KiB time=00:03:16.46 bitrate=7733.4kbits/s speed=   1x    frame= 5905 fps= 30 q=-1.0 size=  185483KiB time=00:03:16.83 bitrate=7719.6kbits/s speed=   1x    frame= 5927 fps= 30 q=-1.0 size=  186527KiB time=00:03:17.50 bitrate=7736.8kbits/s speed=   1x    frame= 5943 fps= 30 q=-1.0 size=  186729KiB time=00:03:18.03 bitrate=7724.4kbits/s speed=   1x    frame= 5958 fps= 30 q=-1.0 size=  187031KiB time=00:03:18.53 bitrate=7717.4kbits/s speed=   1x    frame= 5974 fps= 30 q=-1.0 size=  187431KiB time=00:03:19.06 bitrate=7713.2kbits/s speed=   1x    frame= 5985 fps= 30 q=-1.0 size=  187561KiB time=00:03:19.50 bitrate=7701.8kbits/s speed=   1x    frame= 6005 fps= 30 q=-1.0 size=  188827KiB time=00:03:20.06 bitrate=7731.8kbits/s speed=   1x    frame= 6020 fps= 30 q=-1.0 size=  189343KiB time=00:03:20.60 bitrate=7732.3kbits/s speed=   1x    frame= 6036 fps= 30 q=-1.0 size=  189951KiB time=00:03:21.13 bitrate=7736.5kbits/s speed=   1x    frame= 6051 fps= 30 q=-1.0 size=  190203KiB time=00:03:21.63 bitrate=7727.6kbits/s speed=   1x    frame= 6065 fps= 30 q=-1.0 size=  190462KiB time=00:03:22.10 bitrate=7720.3kbits/s speed=   1x    frame= 6082 fps= 30 q=-1.0 size=  191777KiB time=00:03:22.66 bitrate=7751.8kbits/s speed=   1x    frame= 6095 fps= 30 q=-1.0 size=  192369KiB time=00:03:23.13 bitrate=7757.9kbits/s speed=   1x    frame= 6111 fps= 30 q=-1.0 size=  192797KiB time=00:03:23.70 bitrate=7753.5kbits/s speed=   1x    frame= 6128 fps= 30 q=-1.0 size=  193074KiB time=00:03:24.20 bitrate=7745.7kbits/s speed=   1x    frame= 6144 fps= 30 q=-1.0 size=  193203KiB time=00:03:24.73 bitrate=7730.6kbits/s speed=   1x    frame= 6151 fps= 30 q=-1.0 size=  193212KiB time=00:03:25.23 bitrate=7712.1kbits/s speed=   1x    frame= 6168 fps= 30 q=-1.0 size=  194134KiB time=00:03:25.56 bitrate=7736.4kbits/s speed=   1x    frame= 6190 fps= 30 q=-1.0 size=  194461KiB time=00:03:26.26 bitrate=7723.1kbits/s speed=   1x    frame= 6206 fps= 30 q=-1.0 size=  194768KiB time=00:03:26.76 bitrate=7716.6kbits/s speed=   1x    frame= 6221 fps= 30 q=-1.0 size=  195166KiB time=00:03:27.30 bitrate=7712.5kbits/s speed=   1x    frame= 6231 fps= 30 q=-1.0 size=  195290KiB time=00:03:27.76 bitrate=7700.1kbits/s speed=   1x    frame= 6252 fps= 30 q=-1.0 size=  196678KiB time=00:03:28.33 bitrate=7733.7kbits/s speed=   1x    frame= 6268 fps= 30 q=-1.0 size=  197115KiB time=00:03:28.86 bitrate=7731.1kbits/s speed=   1x    frame= 6283 fps= 30 q=-1.0 size=  197688KiB time=00:03:29.36 bitrate=7735.0kbits/s speed=   1x    frame= 6299 fps= 30 q=-1.0 size=  197966KiB time=00:03:29.90 bitrate=7726.2kbits/s speed=   1x    frame= 6311 fps= 30 q=-1.0 size=  198191KiB time=00:03:30.40 bitrate=7716.6kbits/s speed=   1x    frame= 6330 fps= 30 q=-1.0 size=  199513KiB time=00:03:30.90 bitrate=7749.7kbits/s speed=   1x    frame= 6345 fps= 30 q=-1.0 size=  200224KiB time=00:03:31.43 bitrate=7757.7kbits/s speed=   1x    frame= 6361 fps= 30 q=-1.0 size=  200600KiB time=00:03:31.96 bitrate=7752.7kbits/s speed=   1x    frame= 6376 fps= 30 q=-1.0 size=  200827KiB time=00:03:32.46 bitrate=7743.2kbits/s speed=   1x    frame= 6392 fps= 30 q=-1.0 size=  200937KiB time=00:03:33.00 bitrate=7728.1kbits/s speed=   1x    frame= 6407 fps= 30 q=-1.0 size=  201791KiB time=00:03:33.50 bitrate=7742.7kbits/s speed=   1x    frame= 6423 fps= 30 q=-1.0 size=  202025KiB time=00:03:34.00 bitrate=7733.6kbits/s speed=   1x    frame= 6438 fps= 30 q=-1.0 size=  202241KiB time=00:03:34.53 bitrate=7722.6kbits/s speed=   1x    frame= 6454 fps= 30 q=-1.0 size=  202539KiB time=00:03:35.03 bitrate=7716.0kbits/s speed=   1x    frame= 6468 fps= 30 q=-1.0 size=  202946KiB time=00:03:35.56 bitrate=7712.4kbits/s speed=   1x    frame= 6483 fps= 30 q=-1.0 size=  203869KiB time=00:03:36.10 bitrate=7728.3kbits/s speed=   1x    frame= 6500 fps= 30 q=-1.0 size=  204418KiB time=00:03:36.60 bitrate=7731.2kbits/s speed=   1x    frame= 6516 fps= 30 q=-1.0 size=  204851KiB time=00:03:37.13 bitrate=7728.6kbits/s speed=   1x    frame= 6532 fps= 30 q=-1.0 size=  205466KiB time=00:03:37.66 bitrate=7732.8kbits/s speed=   1x    frame= 6548 fps= 30 q=-1.0 size=  205778KiB time=00:03:38.20 bitrate=7725.6kbits/s speed=   1x    frame= 6557 fps= 30 q=-1.0 size=  205920KiB time=00:03:38.70 bitrate=7713.3kbits/s speed=   1x    frame= 6577 fps= 30 q=-1.0 size=  207247KiB time=00:03:39.23 bitrate=7744.1kbits/s speed=   1x    frame= 6594 fps= 30 q=-1.0 size=  208091KiB time=00:03:39.73 bitrate=7758.0kbits/s speed=   1x    frame= 6610 fps= 30 q=-1.0 size=  208404KiB time=00:03:40.23 bitrate=7752.0kbits/s speed=   1x    frame= 6625 fps= 30 q=-1.0 size=  208584KiB time=00:03:40.76 bitrate=7739.9kbits/s speed=   1x    frame= 6641 fps= 30 q=-1.0 size=  208668KiB time=00:03:41.26 bitrate=7725.5kbits/s speed=   1x    frame= 6656 fps= 30 q=-1.0 size=  209583KiB time=00:03:41.80 bitrate=7740.8kbits/s speed=   1x    frame= 6672 fps= 30 q=-1.0 size=  209766KiB time=00:03:42.33 bitrate=7728.9kbits/s speed=   1x    frame= 6687 fps= 30 q=-1.0 size=  210029KiB time=00:03:42.83 bitrate=7721.3kbits/s speed=   1x    frame= 6702 fps= 30 q=-1.0 size=  210273KiB time=00:03:43.36 bitrate=7711.8kbits/s speed=   1x    frame= 6718 fps= 30 q=-1.0 size=  210717KiB time=00:03:43.86 bitrate=7710.8kbits/s speed=   1x    frame= 6728 fps= 30 q=-1.0 size=  211593KiB time=00:03:44.40 bitrate=7724.5kbits/s speed=   1x    frame= 6749 fps= 30 q=-1.0 size=  212244KiB time=00:03:44.90 bitrate=7731.0kbits/s speed=   1x    frame= 6763 fps= 30 q=-1.0 size=  212586KiB time=00:03:45.40 bitrate=7726.3kbits/s speed=   1x    frame= 6780 fps= 30 q=-1.0 size=  213249KiB time=00:03:45.93 bitrate=7732.1kbits/s speed=   1x    frame= 6796 fps= 30 q=-1.0 size=  213574KiB time=00:03:46.43 bitrate=7726.8kbits/s speed=   1x    frame= 6804 fps= 30 q=-1.0 size=  214407KiB time=00:03:46.73 bitrate=7746.6kbits/s speed=   1x    frame= 6824 fps= 30 q=-1.0 size=  215367KiB time=00:03:47.46 bitrate=7756.2kbits/s speed=   1x    frame= 6842 fps= 30 q=-1.0 size=  215828KiB time=00:03:48.00 bitrate=7754.7kbits/s speed=   1x    frame= 6857 fps= 30 q=-1.0 size=  216133KiB time=00:03:48.50 bitrate=7748.6kbits/s speed=   1x    frame= 6873 fps= 30 q=-1.0 size=  216319KiB time=00:03:49.03 bitrate=7737.2kbits/s speed=   1x    frame= 6888 fps= 30 q=-1.0 size=  216397KiB time=00:03:49.53 bitrate=7723.2kbits/s speed=   1x    frame= 6904 fps= 30 q=-1.0 size=  217320KiB time=00:03:50.06 bitrate=7738.1kbits/s speed=   1x    frame= 6919 fps= 30 q=-1.0 size=  217540KiB time=00:03:50.56 bitrate=7729.1kbits/s speed=   1x    frame= 6935 fps= 30 q=-1.0 size=  217798KiB time=00:03:51.10 bitrate=7720.5kbits/s speed=   1x    frame= 6950 fps= 30 q=-1.0 size=  218241KiB time=00:03:51.60 bitrate=7719.5kbits/s speed=   1x    frame= 6966 fps= 30 q=-1.0 size=  218464KiB time=00:03:52.10 bitrate=7710.7kbits/s speed=   1x    frame= 6981 fps= 30 q=-1.0 size=  219540KiB time=00:03:52.63 bitrate=7730.9kbits/s speed=   1x    frame= 6996 fps= 30 q=-1.0 size=  220062KiB time=00:03:53.13 bitrate=7732.7kbits/s speed=   1x    frame= 7012 fps= 30 q=-1.0 size=  220679KiB time=00:03:53.66 bitrate=7736.7kbits/s speed=   1x    frame= 7027 fps= 30 q=-1.0 size=  220983KiB time=00:03:54.16 bitrate=7730.8kbits/s speed=   1x    frame= 7043 fps= 30 q=-1.0 size=  221302KiB time=00:03:54.66 bitrate=7725.5kbits/s speed=   1x    frame= 7050 fps= 30 q=-1.0 size=  222135KiB time=00:03:55.20 bitrate=7737.0kbits/s speed=   1x    frame= 7073 fps= 30 q=-1.0 size=  223116KiB time=00:03:55.70 bitrate=7754.6kbits/s speed=   1x    frame= 7089 fps= 30 q=-1.0 size=  223563KiB time=00:03:56.23 bitrate=7752.6kbits/s speed=   1x    frame= 7105 fps= 30 q=-1.0 size=  223898KiB time=00:03:56.76 bitrate=7746.7kbits/s speed=   1x    frame= 7120 fps= 30 q=-1.0 size=  224067KiB time=00:03:57.26 bitrate=7736.3kbits/s speed=   1x    frame= 7135 fps= 30 q=-1.0 size=  224126KiB time=00:03:57.80 bitrate=7720.9kbits/s speed=   1x    frame= 7151 fps= 30 q=-1.0 size=  225073KiB time=00:03:58.30 bitrate=7737.3kbits/s speed=   1x    frame= 7167 fps= 30 q=-1.0 size=  225325KiB time=00:03:58.83 bitrate=7728.6kbits/s speed=   1x    frame= 7182 fps= 30 q=-1.0 size=  225534KiB time=00:03:59.33 bitrate=7719.7kbits/s speed=   1x    frame= 7194 fps= 30 q=-1.0 size=  225730KiB time=00:03:59.86 bitrate=7709.2kbits/s speed=   1x    frame= 7213 fps= 30 q=-1.0 size=  226193KiB time=00:04:00.36 bitrate=7708.9kbits/s speed=   1x    frame= 7228 fps= 30 q=-1.0 size=  227270KiB time=00:04:00.86 bitrate=7729.6kbits/s speed=   1x    frame= 7244 fps= 30 q=-1.0 size=  227806KiB time=00:04:01.40 bitrate=7730.7kbits/s speed=   1x    frame= 7260 fps= 30 q=-1.0 size=  228451KiB time=00:04:01.93 bitrate=7735.5kbits/s speed=   1x    frame= 7275 fps= 30 q=-1.0 size=  228782KiB time=00:04:02.43 bitrate=7730.7kbits/s speed=   1x    frame= 7291 fps= 30 q=-1.0 size=  229081KiB time=00:04:02.96 bitrate=7723.8kbits/s speed=   1x    frame= 7296 fps= 30 q=-1.0 size=  229864KiB time=00:04:03.40 bitrate=7736.4kbits/s speed=   1x    frame= 7322 fps= 30 q=-1.0 size=  230997KiB time=00:04:04.00 bitrate=7755.5kbits/s speed=   1x    frame= 7338 fps= 30 q=-1.0 size=  231377KiB time=00:04:04.50 bitrate=7752.3kbits/s speed=   1x    frame= 7354 fps= 30 q=-1.0 size=  231665KiB time=00:04:05.06 bitrate=7744.0kbits/s speed=   1x    frame= 7369 fps= 30 q=-1.0 size=  231808KiB time=00:04:05.53 bitrate=7734.1kbits/s speed=   1x    frame= 7381 fps= 30 q=-1.0 size=  231855KiB time=00:04:06.06 bitrate=7718.9kbits/s speed=   1x    frame= 7400 fps= 30 q=-1.0 size=  232814KiB time=00:04:06.56 bitrate=7735.1kbits/s speed=   1x    frame= 7415 fps= 30 q=-1.0 size=  233054KiB time=00:04:07.10 bitrate=7726.3kbits/s speed=   1x    frame= 7430 fps= 30 q=-1.0 size=  233268KiB time=00:04:07.60 bitrate=7717.8kbits/s speed=   1x    frame= 7446 fps= 30 q=-1.0 size=  233754KiB time=00:04:08.13 bitrate=7717.3kbits/s speed=   1x    frame= 7461 fps= 30 q=-1.0 size=  233933KiB time=00:04:08.63 bitrate=7707.6kbits/s speed=   1x    frame= 7467 fps= 30 q=-1.0 size=  234783KiB time=00:04:09.03 bitrate=7723.2kbits/s speed=   1x    frame= 7493 fps= 30 q=-1.0 size=  235633KiB time=00:04:09.70 bitrate=7730.5kbits/s speed=   1x    frame= 7508 fps= 30 q=-1.0 size=  236239KiB time=00:04:10.20 bitrate=7734.9kbits/s speed=   1x    frame= 7523 fps= 30 q=-1.0 size=  236518KiB time=00:04:10.70 bitrate=7728.6kbits/s speed=   1x    frame= 7539 fps= 30 q=-1.0 size=  236827KiB time=00:04:11.23 bitrate=7722.2kbits/s speed=   1x    frame= 7541 fps= 30 q=-1.0 size=  236833KiB time=00:04:11.43 bitrate=7716.3kbits/s speed=   1x    frame= 7564 fps= 30 q=-1.0 size=  238162KiB time=00:04:12.07 bitrate=7739.8kbits/s speed=   1x    frame= 7586 fps= 30 q=-1.0 size=  239164KiB time=00:04:12.80 bitrate=7750.1kbits/s speed=   1x    frame= 7601 fps= 30 q=-1.0 size=  239399KiB time=00:04:13.30 bitrate=7742.4kbits/s speed=   1x    frame= 7615 fps= 30 q=-1.0 size=  239536KiB time=00:04:13.80 bitrate=7731.6kbits/s speed=   1x    frame= 7627 fps= 30 q=-1.0 size=  239583KiB time=00:04:14.26 bitrate=7718.9kbits/s speed=   1x    frame= 7627 fps= 30 q=-1.0 size=  239583KiB time=00:04:14.26 bitrate=7718.9kbits/s speed=   1x    frame= 7645 fps= 30 q=-1.0 size=  240505KiB time=00:04:14.76 bitrate=7733.3kbits/s speed=   1x    frame= 7676 fps= 30 q=-1.0 size=  240996KiB time=00:04:15.80 bitrate=7717.9kbits/s speed=   1x    frame= 7694 fps= 30 q=-1.0 size=  241524KiB time=00:04:16.36 bitrate=7717.7kbits/s speed=   1x    frame= 7707 fps= 30 q=-1.0 size=  241662KiB time=00:04:16.90 bitrate=7706.1kbits/s speed=   1x    frame= 7725 fps= 30 q=-1.0 size=  242918KiB time=00:04:17.43 bitrate=7730.1kbits/s speed=   1x    frame= 7740 fps= 30 q=-1.0 size=  243363KiB time=00:04:17.93 bitrate=7729.2kbits/s speed=   1x    frame= 7755 fps= 30 q=-1.0 size=  243974KiB time=00:04:18.43 bitrate=7733.7kbits/s speed=   1x    frame= 7771 fps= 30 q=-1.0 size=  244252KiB time=00:04:18.96 bitrate=7726.5kbits/s speed=   1x    frame= 7786 fps= 30 q=-1.0 size=  244557KiB time=00:04:19.46 bitrate=7721.3kbits/s speed=   1x    frame= 7802 fps= 30 q=-1.0 size=  245829KiB time=00:04:19.96 bitrate=7746.5kbits/s speed=   1x    frame= 7817 fps= 30 q=-1.0 size=  246470KiB time=00:04:20.50 bitrate=7750.8kbits/s speed=   1x    frame= 7833 fps= 30 q=-1.0 size=  246897KiB time=00:04:21.03 bitrate=7748.4kbits/s speed=   1x    frame= 7848 fps= 30 q=-1.0 size=  247165KiB time=00:04:21.53 bitrate=7741.9kbits/s speed=   1x    frame= 7864 fps= 30 q=-1.0 size=  247297KiB time=00:04:22.06 bitrate=7730.3kbits/s speed=   1x    frame= 7873 fps= 30 q=-1.0 size=  247312KiB time=00:04:22.56 bitrate=7716.1kbits/s speed=   1x    frame= 7895 fps= 30 q=-1.0 size=  248356KiB time=00:04:23.10 bitrate=7732.9kbits/s speed=   1x    frame= 7910 fps= 30 q=-1.0 size=  248556KiB time=00:04:23.60 bitrate=7724.5kbits/s speed=   1x    frame= 7926 fps= 30 q=-1.0 size=  248860KiB time=00:04:24.13 bitrate=7718.3kbits/s speed=   1x    frame= 7941 fps= 30 q=-1.0 size=  249258KiB time=00:04:24.63 bitrate=7716.0kbits/s speed=   1x    frame= 7953 fps= 30 q=-1.0 size=  249390KiB time=00:04:25.13 bitrate=7705.6kbits/s speed=   1x    frame= 7973 fps= 30 q=-1.0 size=  250655KiB time=00:04:25.66 bitrate=7729.1kbits/s speed=   1x    frame= 7987 fps= 30 q=-1.0 size=  251097KiB time=00:04:26.20 bitrate=7727.2kbits/s speed=   1x    frame= 8004 fps= 30 q=-1.0 size=  251780KiB time=00:04:26.73 bitrate=7732.7kbits/s speed=   1x    frame= 8019 fps= 30 q=-1.0 size=  252032KiB time=00:04:27.23 bitrate=7726.0kbits/s speed=   1x    frame= 8033 fps= 30 q=-1.0 size=  252291KiB time=00:04:27.76 bitrate=7718.5kbits/s speed=   1x    frame= 8051 fps= 30 q=-1.0 size=  253612KiB time=00:04:28.30 bitrate=7743.5kbits/s speed=   1x    frame= 8066 fps= 30 q=-1.0 size=  254319KiB time=00:04:28.80 bitrate=7750.7kbits/s speed=   1x    frame= 8081 fps= 30 q=-1.0 size=  254692KiB time=00:04:29.30 bitrate=7747.6kbits/s speed=   1x    frame= 8097 fps= 30 q=-1.0 size=  254907KiB time=00:04:29.80 bitrate=7739.8kbits/s speed=   1x    frame= 8112 fps= 30 q=-1.0 size=  255032KiB time=00:04:30.33 bitrate=7728.3kbits/s speed=   1x    frame= 8119 fps= 30 q=-1.0 size=  255041KiB time=00:04:30.83 bitrate=7714.3kbits/s speed=   1x    frame= 8143 fps= 30 q=-1.0 size=  256091KiB time=00:04:31.36 bitrate=7730.9kbits/s speed=   1x    frame= 8159 fps= 30 q=-1.0 size=  256337KiB time=00:04:31.90 bitrate=7723.1kbits/s speed=   1x    frame= 8174 fps= 30 q=-1.0 size=  256597KiB time=00:04:32.40 bitrate=7716.7kbits/s speed=   1x    frame= 8189 fps= 30 q=-1.0 size=  256995KiB time=00:04:32.90 bitrate=7714.6kbits/s speed=   1x    frame= 8199 fps= 30 q=-1.0 size=  257119KiB time=00:04:33.43 bitrate=7703.2kbits/s speed=   1x    frame= 8219 fps= 30 q=-1.0 size=  258384KiB time=00:04:33.96 bitrate=7726.1kbits/s speed=   1x    frame= 8236 fps= 30 q=-1.0 size=  258944KiB time=00:04:34.46 bitrate=7728.7kbits/s speed=   1x    frame= 8240 fps= 30 q=-1.0 size=  259308KiB time=00:04:34.86 bitrate=7728.3kbits/s speed=   1x    frame= 8243 fps= 30 q=-1.0 size=  259326KiB time=00:04:34.96 bitrate=7726.0kbits/s speed=   1x    frame= 8279 fps= 30 q=-1.0 size=  260020KiB time=00:04:36.00 bitrate=7717.7kbits/s speed=   1x    frame= 8298 fps= 30 q=-1.0 size=  261342KiB time=00:04:36.53 bitrate=7742.0kbits/s speed=   1x    frame= 8314 fps= 30 q=-1.0 size=  262115KiB time=00:04:37.06 bitrate=7749.9kbits/s speed=   1x    frame= 8329 fps= 30 q=-1.0 size=  262429KiB time=00:04:37.56 bitrate=7745.2kbits/s speed=   1x    frame= 8344 fps= 30 q=-1.0 size=  262656KiB time=00:04:38.06 bitrate=7738.0kbits/s speed=   1x    frame= 8360 fps= 30 q=-1.0 size=  262766KiB time=00:04:38.60 bitrate=7726.4kbits/s speed=   1x    frame= 8376 fps= 30 q=-1.0 size=  263624KiB time=00:04:39.13 bitrate=7736.8kbits/s speed=   1x    [flv @ 0000024381739c80] Failed to update header with correct duration.
[flv @ 0000024381739c80] Failed to update header with correct filesize.
[out#0/flv @ 00000243ffd54440] video:259108KiB audio:4393KiB subtitle:0KiB other streams:0KiB global headers:0KiB muxing overhead: 0.138342%
frame= 8391 fps= 30 q=-1.0 Lsize=  263866KiB time=00:04:39.63 bitrate=7730.1kbits/s speed=   1x    
[aac @ 00000243ffdac6c0] Qavg: 542.451
Exiting normally, received signal 2.
